{
    "asset" : {
        "generator" : "Khronos glTF Blender I/O v1.4.40",
        "version" : "2.0"
    },
    "scene" : 0,
    "scenes" : [
        {
            "extras" : {
                "b_settings" : 1,
                "b_export" : 1,
                "s_output" : "exporting...",
                "export_path" : "C:\\Users\\chere\\Downloads\\"
            },
            "name" : "Scene",
            "nodes" : [
                0
            ]
        }
    ],
    "nodes" : [
        {
            "extras" : {
                "uuid" : "7b8efcd1-5aac-49d0-88d7-39c0ec74ae02"
            },
            "mesh" : 0,
            "name" : "Cube.005",
            "scale" : [
                1.1503061056137085,
                3.0752034187316895,
                1.2723796367645264
            ]
        }
    ],
    "meshes" : [
        {
            "extras" : {
                "uuid" : "4fdd8b40-0400-496f-a0b0-2b1130f7532f"
            },
            "name" : "Cube.005",
            "primitives" : [
                {
                    "attributes" : {
                        "POSITION" : 0,
                        "NORMAL" : 1,
                        "TEXCOORD_0" : 2
                    },
                    "indices" : 3
                }
            ]
        }
    ],
    "accessors" : [
        {
            "bufferView" : 0,
            "componentType" : 5126,
            "count" : 54,
            "max" : [
                1.3225338459014893,
                0.5961679220199585,
                1.001590371131897
            ],
            "min" : [
                -0.677466094493866,
                -1.403831958770752,
                -1.0055663585662842
            ],
            "type" : "VEC3"
        },
        {
            "bufferView" : 1,
            "componentType" : 5126,
            "count" : 54,
            "type" : "VEC3"
        },
        {
            "bufferView" : 2,
            "componentType" : 5126,
            "count" : 54,
            "type" : "VEC2"
        },
        {
            "bufferView" : 3,
            "componentType" : 5123,
            "count" : 96,
            "type" : "SCALAR"
        }
    ],
    "bufferViews" : [
        {
            "buffer" : 0,
            "byteLength" : 648,
            "byteOffset" : 0
        },
        {
            "buffer" : 0,
            "byteLength" : 648,
            "byteOffset" : 648
        },
        {
            "buffer" : 0,
            "byteLength" : 432,
            "byteOffset" : 1296
        },
        {
            "buffer" : 0,
            "byteLength" : 192,
            "byteOffset" : 1728
        }
    ],
    "buffers" : [
        {
            "byteLength" : 1920,
            "uri" : "data:application/octet-stream;base64,"
        }
    ]
}
