{
    "asset" : {
        "generator" : "Khronos glTF Blender I/O v1.4.40",
        "version" : "2.0"
    },
    "scene" : 0,
    "scenes" : [
        {
            "extras" : {
                "b_settings" : 1,
                "b_export" : 1,
                "s_output" : "exporting...",
                "export_path" : "C:\\Users\\chere\\Downloads\\"
            },
            "name" : "Scene",
            "nodes" : [
                0
            ]
        }
    ],
    "nodes" : [
        {
            "mesh" : 0,
            "name" : "Cube.001",
            "scale" : [
                1.0403869152069092,
                0.521675705909729,
                0.4572680592536926
            ]
        }
    ],
    "materials" : [
        {
            "doubleSided" : true,
            "name" : "brick",
            "pbrMetallicRoughness" : {
                "baseColorFactor" : [
                    0.49457278847694397,
                    0.49999991059303284,
                    0.4722186326980591,
                    1
                ],
                "metallicFactor" : 0,
                "roughnessFactor" : 0.5
            }
        }
    ],
    "meshes" : [
        {
            "name" : "Cube.002",
            "primitives" : [
                {
                    "attributes" : {
                        "POSITION" : 0,
                        "NORMAL" : 1,
                        "TEXCOORD_0" : 2
                    },
                    "indices" : 3,
                    "material" : 0
                }
            ]
        }
    ],
    "accessors" : [
        {
            "bufferView" : 0,
            "componentType" : 5126,
            "count" : 1180,
            "max" : [
                0.7340836524963379,
                1.6678171157836914,
                3.2313482761383057
            ],
            "min" : [
                -0.5811200141906738,
                -5.131845951080322,
                -3.2313482761383057
            ],
            "type" : "VEC3"
        },
        {
            "bufferView" : 1,
            "componentType" : 5126,
            "count" : 1180,
            "type" : "VEC3"
        },
        {
            "bufferView" : 2,
            "componentType" : 5126,
            "count" : 1180,
            "type" : "VEC2"
        },
        {
            "bufferView" : 3,
            "componentType" : 5123,
            "count" : 3864,
            "type" : "SCALAR"
        }
    ],
    "bufferViews" : [
        {
            "buffer" : 0,
            "byteLength" : 14160,
            "byteOffset" : 0
        },
        {
            "buffer" : 0,
            "byteLength" : 14160,
            "byteOffset" : 14160
        },
        {
            "buffer" : 0,
            "byteLength" : 9440,
            "byteOffset" : 28320
        },
        {
            "buffer" : 0,
            "byteLength" : 7728,
            "byteOffset" : 37760
        }
    ],
    "buffers" : [
        {
            "byteLength" : 45488,
            "uri" : "data:application/octet-stream;base64,"
        }
    ]
}
