{
    "asset" : {
        "generator" : "Khronos glTF Blender I/O v1.4.40",
        "version" : "2.0"
    },
    "scene" : 0,
    "scenes" : [
        {
            "extras" : {
                "b_settings" : 1,
                "b_export" : 1,
                "s_output" : "exporting...",
                "export_path" : "C:\\Users\\chere\\Downloads\\"
            },
            "name" : "Scene",
            "nodes" : [
                0
            ]
        }
    ],
    "nodes" : [
        {
            "extras" : {
                "uuid" : "9ab4b86f-be52-4734-b904-8f83dbf18e58"
            },
            "mesh" : 0,
            "name" : "Cube.066",
            "scale" : [
                0.7963657975196838,
                1.5484890937805176,
                0.7742445468902588
            ]
        }
    ],
    "materials" : [
        {
            "doubleSided" : true,
            "name" : "Material.031",
            "pbrMetallicRoughness" : {
                "metallicFactor" : 0,
                "roughnessFactor" : 0.5
            }
        }
    ],
    "meshes" : [
        {
            "extras" : {
                "uuid" : "5c05911a-12b7-48f8-9cd8-0ec16435df19"
            },
            "name" : "Cube.066",
            "primitives" : [
                {
                    "attributes" : {
                        "POSITION" : 0,
                        "NORMAL" : 1,
                        "TEXCOORD_0" : 2
                    },
                    "indices" : 3,
                    "material" : 0
                }
            ]
        }
    ],
    "accessors" : [
        {
            "bufferView" : 0,
            "componentType" : 5126,
            "count" : 60,
            "max" : [
                1.2680528163909912,
                1.030990481376648,
                1.0019539594650269
            ],
            "min" : [
                -0.7319471836090088,
                -4.256762981414795,
                -1.0068389177322388
            ],
            "type" : "VEC3"
        },
        {
            "bufferView" : 1,
            "componentType" : 5126,
            "count" : 60,
            "type" : "VEC3"
        },
        {
            "bufferView" : 2,
            "componentType" : 5126,
            "count" : 60,
            "type" : "VEC2"
        },
        {
            "bufferView" : 3,
            "componentType" : 5123,
            "count" : 96,
            "type" : "SCALAR"
        }
    ],
    "bufferViews" : [
        {
            "buffer" : 0,
            "byteLength" : 720,
            "byteOffset" : 0
        },
        {
            "buffer" : 0,
            "byteLength" : 720,
            "byteOffset" : 720
        },
        {
            "buffer" : 0,
            "byteLength" : 480,
            "byteOffset" : 1440
        },
        {
            "buffer" : 0,
            "byteLength" : 192,
            "byteOffset" : 1920
        }
    ],
    "buffers" : [
        {
            "byteLength" : 2112,
            "uri" : "data:application/octet-stream;base64,"
        }
    ]
}
