{
    "asset" : {
        "generator" : "Khronos glTF Blender I/O v1.4.40",
        "version" : "2.0"
    },
    "scene" : 0,
    "scenes" : [
        {
            "extras" : {
                "b_settings" : 1,
                "b_export" : 1,
                "s_output" : "exporting...",
                "export_path" : "C:\\Users\\chere\\Downloads\\"
            },
            "name" : "Scene",
            "nodes" : [
                0
            ]
        }
    ],
    "nodes" : [
        {
            "extras" : {
                "uuid" : "9ab4b86f-be52-4734-b904-8f83dbf18e58"
            },
            "mesh" : 0,
            "name" : "Cube.010",
            "scale" : [
                0.7963657975196838,
                2.314669609069824,
                1.0356577634811401
            ]
        }
    ],
    "meshes" : [
        {
            "extras" : {
                "uuid" : "5c05911a-12b7-48f8-9cd8-0ec16435df19"
            },
            "name" : "Cube.010",
            "primitives" : [
                {
                    "attributes" : {
                        "POSITION" : 0,
                        "NORMAL" : 1,
                        "TEXCOORD_0" : 2
                    },
                    "indices" : 3
                }
            ]
        }
    ],
    "accessors" : [
        {
            "bufferView" : 0,
            "componentType" : 5126,
            "count" : 54,
            "max" : [
                1.2680529356002808,
                0.5806289315223694,
                1.0019539594650269
            ],
            "min" : [
                -0.7319470643997192,
                -1.4193711280822754,
                -1.0068386793136597
            ],
            "type" : "VEC3"
        },
        {
            "bufferView" : 1,
            "componentType" : 5126,
            "count" : 54,
            "type" : "VEC3"
        },
        {
            "bufferView" : 2,
            "componentType" : 5126,
            "count" : 54,
            "type" : "VEC2"
        },
        {
            "bufferView" : 3,
            "componentType" : 5123,
            "count" : 96,
            "type" : "SCALAR"
        }
    ],
    "bufferViews" : [
        {
            "buffer" : 0,
            "byteLength" : 648,
            "byteOffset" : 0
        },
        {
            "buffer" : 0,
            "byteLength" : 648,
            "byteOffset" : 648
        },
        {
            "buffer" : 0,
            "byteLength" : 432,
            "byteOffset" : 1296
        },
        {
            "buffer" : 0,
            "byteLength" : 192,
            "byteOffset" : 1728
        }
    ],
    "buffers" : [
        {
            "byteLength" : 1920,
            "uri" : "data:application/octet-stream;base64,"
        }
    ]
}
