{
    "asset" : {
        "generator" : "Khronos glTF Blender I/O v1.4.40",
        "version" : "2.0"
    },
    "scene" : 0,
    "scenes" : [
        {
            "extras" : {
                "b_settings" : 1,
                "b_export" : 1,
                "s_output" : "exporting...",
                "export_path" : "C:\\Users\\chere\\Downloads\\"
            },
            "name" : "Scene",
            "nodes" : [
                0
            ]
        }
    ],
    "nodes" : [
        {
            "extras" : {
                "uuid" : "7b8efcd1-5aac-49d0-88d7-39c0ec74ae02"
            },
            "mesh" : 0,
            "name" : "Cube.071",
            "scale" : [
                1.1503061056137085,
                2.0572781562805176,
                0.9512148499488831
            ]
        }
    ],
    "materials" : [
        {
            "doubleSided" : true,
            "name" : "Material.028",
            "pbrMetallicRoughness" : {
                "metallicFactor" : 0,
                "roughnessFactor" : 0.5
            }
        }
    ],
    "meshes" : [
        {
            "extras" : {
                "uuid" : "4fdd8b40-0400-496f-a0b0-2b1130f7532f"
            },
            "name" : "Cube.071",
            "primitives" : [
                {
                    "attributes" : {
                        "POSITION" : 0,
                        "NORMAL" : 1,
                        "TEXCOORD_0" : 2
                    },
                    "indices" : 3,
                    "material" : 0
                }
            ]
        }
    ],
    "accessors" : [
        {
            "bufferView" : 0,
            "componentType" : 5126,
            "count" : 60,
            "max" : [
                1.3225338459014893,
                1.4827101230621338,
                1.0015902519226074
            ],
            "min" : [
                -0.677466094493866,
                -3.805043935775757,
                -1.005566120147705
            ],
            "type" : "VEC3"
        },
        {
            "bufferView" : 1,
            "componentType" : 5126,
            "count" : 60,
            "type" : "VEC3"
        },
        {
            "bufferView" : 2,
            "componentType" : 5126,
            "count" : 60,
            "type" : "VEC2"
        },
        {
            "bufferView" : 3,
            "componentType" : 5123,
            "count" : 96,
            "type" : "SCALAR"
        }
    ],
    "bufferViews" : [
        {
            "buffer" : 0,
            "byteLength" : 720,
            "byteOffset" : 0
        },
        {
            "buffer" : 0,
            "byteLength" : 720,
            "byteOffset" : 720
        },
        {
            "buffer" : 0,
            "byteLength" : 480,
            "byteOffset" : 1440
        },
        {
            "buffer" : 0,
            "byteLength" : 192,
            "byteOffset" : 1920
        }
    ],
    "buffers" : [
        {
            "byteLength" : 2112,
            "uri" : "data:application/octet-stream;base64,"
        }
    ]
}
