{
    "asset" : {
        "generator" : "Khronos glTF Blender I/O v1.4.40",
        "version" : "2.0"
    },
    "scene" : 0,
    "scenes" : [
        {
            "extras" : {
                "b_settings" : 1,
                "b_export" : 1,
                "s_output" : "exporting...",
                "export_path" : "C:\\Users\\chere\\Downloads\\"
            },
            "name" : "Scene",
            "nodes" : [
                0
            ]
        }
    ],
    "nodes" : [
        {
            "extras" : {
                "uuid" : "f3e6052d-65b1-4359-8e45-9eaf66e7eca8"
            },
            "mesh" : 0,
            "name" : "Cube.070",
            "scale" : [
                0.7963657975196838,
                1.5484890937805176,
                0.7742445468902588
            ]
        }
    ],
    "materials" : [
        {
            "doubleSided" : true,
            "name" : "Material.019",
            "pbrMetallicRoughness" : {
                "metallicFactor" : 0,
                "roughnessFactor" : 0.5
            }
        }
    ],
    "meshes" : [
        {
            "extras" : {
                "uuid" : "0dfaeaa6-a634-46bd-9a28-6e5a4b16f531"
            },
            "name" : "Cube.070",
            "primitives" : [
                {
                    "attributes" : {
                        "POSITION" : 0,
                        "NORMAL" : 1,
                        "TEXCOORD_0" : 2
                    },
                    "indices" : 3,
                    "material" : 0
                }
            ]
        }
    ],
    "accessors" : [
        {
            "bufferView" : 0,
            "componentType" : 5126,
            "count" : 60,
            "max" : [
                1.3709657192230225,
                1.135787844657898,
                1.0019539594650269
            ],
            "min" : [
                -0.6290342807769775,
                -4.151965618133545,
                -1.0068389177322388
            ],
            "type" : "VEC3"
        },
        {
            "bufferView" : 1,
            "componentType" : 5126,
            "count" : 60,
            "type" : "VEC3"
        },
        {
            "bufferView" : 2,
            "componentType" : 5126,
            "count" : 60,
            "type" : "VEC2"
        },
        {
            "bufferView" : 3,
            "componentType" : 5123,
            "count" : 96,
            "type" : "SCALAR"
        }
    ],
    "bufferViews" : [
        {
            "buffer" : 0,
            "byteLength" : 720,
            "byteOffset" : 0
        },
        {
            "buffer" : 0,
            "byteLength" : 720,
            "byteOffset" : 720
        },
        {
            "buffer" : 0,
            "byteLength" : 480,
            "byteOffset" : 1440
        },
        {
            "buffer" : 0,
            "byteLength" : 192,
            "byteOffset" : 1920
        }
    ],
    "buffers" : [
        {
            "byteLength" : 2112,
            "uri" : "data:application/octet-stream;base64,"
        }
    ]
}
