{
    "asset" : {
        "generator" : "Khronos glTF Blender I/O v1.4.40",
        "version" : "2.0"
    },
    "scene" : 0,
    "scenes" : [
        {
            "extras" : {
                "b_settings" : 1,
                "b_export" : 1,
                "s_output" : "exporting...",
                "export_path" : "C:\\Users\\chere\\Downloads\\"
            },
            "name" : "Scene",
            "nodes" : [
                0
            ]
        }
    ],
    "nodes" : [
        {
            "extras" : {
                "uuid" : "2f10d8fa-53a6-4538-9ec2-cea0b27ebc28"
            },
            "mesh" : 0,
            "name" : "Cube.011",
            "scale" : [
                0.7963657975196838,
                2.314669609069824,
                1.0356577634811401
            ]
        }
    ],
    "meshes" : [
        {
            "extras" : {
                "uuid" : "3f17ec60-dd48-4b8c-aae3-267cbd49a3ed"
            },
            "name" : "Cube.011",
            "primitives" : [
                {
                    "attributes" : {
                        "POSITION" : 0,
                        "NORMAL" : 1,
                        "TEXCOORD_0" : 2
                    },
                    "indices" : 3
                }
            ]
        }
    ],
    "accessors" : [
        {
            "bufferView" : 0,
            "componentType" : 5126,
            "count" : 54,
            "max" : [
                1.3709657192230225,
                0.6149331331253052,
                1.0019539594650269
            ],
            "min" : [
                -0.6290343403816223,
                -1.3850668668746948,
                -1.0068386793136597
            ],
            "type" : "VEC3"
        },
        {
            "bufferView" : 1,
            "componentType" : 5126,
            "count" : 54,
            "type" : "VEC3"
        },
        {
            "bufferView" : 2,
            "componentType" : 5126,
            "count" : 54,
            "type" : "VEC2"
        },
        {
            "bufferView" : 3,
            "componentType" : 5123,
            "count" : 96,
            "type" : "SCALAR"
        }
    ],
    "bufferViews" : [
        {
            "buffer" : 0,
            "byteLength" : 648,
            "byteOffset" : 0
        },
        {
            "buffer" : 0,
            "byteLength" : 648,
            "byteOffset" : 648
        },
        {
            "buffer" : 0,
            "byteLength" : 432,
            "byteOffset" : 1296
        },
        {
            "buffer" : 0,
            "byteLength" : 192,
            "byteOffset" : 1728
        }
    ],
    "buffers" : [
        {
            "byteLength" : 1920,
            "uri" : "data:application/octet-stream;base64,"
        }
    ]
}
