{
    "asset" : {
        "generator" : "Khronos glTF Blender I/O v1.4.40",
        "version" : "2.0"
    },
    "scene" : 0,
    "scenes" : [
        {
            "extras" : {
                "b_settings" : 1,
                "b_export" : 1,
                "s_output" : "exporting...",
                "export_path" : "C:\\Users\\chere\\Downloads\\"
            },
            "name" : "Scene",
            "nodes" : [
                0
            ]
        }
    ],
    "nodes" : [
        {
            "extras" : {
                "uuid" : "0a0237bd-adce-425d-95aa-d103bc1338e5"
            },
            "mesh" : 0,
            "name" : "Cube.038",
            "scale" : [
                1.1503061056137085,
                6.570017337799072,
                1.3272764682769775
            ]
        }
    ],
    "materials" : [
        {
            "doubleSided" : true,
            "name" : "Material.038",
            "pbrMetallicRoughness" : {
                "metallicFactor" : 0,
                "roughnessFactor" : 0.5
            }
        }
    ],
    "meshes" : [
        {
            "extras" : {
                "uuid" : "1fdd93e4-458e-4c95-ace2-07089c40a135"
            },
            "name" : "Cube.008",
            "primitives" : [
                {
                    "attributes" : {
                        "POSITION" : 0,
                        "NORMAL" : 1,
                        "TEXCOORD_0" : 2
                    },
                    "indices" : 3,
                    "material" : 0
                }
            ]
        }
    ],
    "accessors" : [
        {
            "bufferView" : 0,
            "componentType" : 5126,
            "count" : 66,
            "max" : [
                1.345609188079834,
                2.165052890777588,
                1.0009325742721558
            ],
            "min" : [
                -0.654390811920166,
                -2.591723680496216,
                -1.0041964054107666
            ],
            "type" : "VEC3"
        },
        {
            "bufferView" : 1,
            "componentType" : 5126,
            "count" : 66,
            "type" : "VEC3"
        },
        {
            "bufferView" : 2,
            "componentType" : 5126,
            "count" : 66,
            "type" : "VEC2"
        },
        {
            "bufferView" : 3,
            "componentType" : 5123,
            "count" : 120,
            "type" : "SCALAR"
        }
    ],
    "bufferViews" : [
        {
            "buffer" : 0,
            "byteLength" : 792,
            "byteOffset" : 0
        },
        {
            "buffer" : 0,
            "byteLength" : 792,
            "byteOffset" : 792
        },
        {
            "buffer" : 0,
            "byteLength" : 528,
            "byteOffset" : 1584
        },
        {
            "buffer" : 0,
            "byteLength" : 240,
            "byteOffset" : 2112
        }
    ],
    "buffers" : [
        {
            "byteLength" : 2352,
            "uri" : "data:application/octet-stream;base64,"
        }
    ]
}
