{
    "asset" : {
        "generator" : "Khronos glTF Blender I/O v1.4.40",
        "version" : "2.0"
    },
    "scene" : 0,
    "scenes" : [
        {
            "extras" : {
                "b_settings" : 1,
                "b_export" : 1,
                "s_output" : "exporting...",
                "export_path" : "C:\\Users\\chere\\Downloads\\"
            },
            "name" : "Scene",
            "nodes" : [
                0
            ]
        }
    ],
    "nodes" : [
        {
            "extras" : {
                "uuid" : "8529ee8f-dee1-421e-8a10-c9ee3bd13db5"
            },
            "mesh" : 0,
            "name" : "Cube.067",
            "scale" : [
                1.1503061056137085,
                3.0527353286743164,
                0.9512148499488831
            ]
        }
    ],
    "materials" : [
        {
            "doubleSided" : true,
            "name" : "Material.008",
            "pbrMetallicRoughness" : {
                "metallicFactor" : 0,
                "roughnessFactor" : 0.5
            }
        }
    ],
    "meshes" : [
        {
            "extras" : {
                "uuid" : "1b935877-0408-4315-a33f-e6bbbd3e24ae"
            },
            "name" : "Cube.067",
            "primitives" : [
                {
                    "attributes" : {
                        "POSITION" : 0,
                        "NORMAL" : 1,
                        "TANGENT" : 2,
                        "TEXCOORD_0" : 3
                    },
                    "indices" : 4,
                    "material" : 0
                }
            ]
        }
    ],
    "accessors" : [
        {
            "bufferView" : 0,
            "componentType" : 5126,
            "count" : 54,
            "max" : [
                0.9127896428108215,
                1.277442455291748,
                1.0015902519226074
            ],
            "min" : [
                -1.1179399490356445,
                -4.010312080383301,
                -1.005566120147705
            ],
            "type" : "VEC3"
        },
        {
            "bufferView" : 1,
            "componentType" : 5126,
            "count" : 54,
            "type" : "VEC3"
        },
        {
            "bufferView" : 2,
            "componentType" : 5126,
            "count" : 54,
            "type" : "VEC4"
        },
        {
            "bufferView" : 3,
            "componentType" : 5126,
            "count" : 54,
            "type" : "VEC2"
        },
        {
            "bufferView" : 4,
            "componentType" : 5123,
            "count" : 84,
            "type" : "SCALAR"
        }
    ],
    "bufferViews" : [
        {
            "buffer" : 0,
            "byteLength" : 648,
            "byteOffset" : 0
        },
        {
            "buffer" : 0,
            "byteLength" : 648,
            "byteOffset" : 648
        },
        {
            "buffer" : 0,
            "byteLength" : 864,
            "byteOffset" : 1296
        },
        {
            "buffer" : 0,
            "byteLength" : 432,
            "byteOffset" : 2160
        },
        {
            "buffer" : 0,
            "byteLength" : 168,
            "byteOffset" : 2592
        }
    ],
    "buffers" : [
        {
            "byteLength" : 2760,
            "uri" : "data:application/octet-stream;base64,"
        }
    ]
}
